<svg id="Слой_1" data-name="Слой 1" xmlns="http://www.w3.org/2000/svg" viewBox="0 0 2000 2000"><defs><style>.cls-1,.cls-3{fill:#fff;}.cls-1,.cls-2{stroke:#000;stroke-miterlimit:10;}.cls-2{stroke-width:6px;}</style></defs><title>Безымянный-1</title><path d="M467.5,942.5a32,32,0,0,0-2-3.37l-2.12-3.35c-1.4-2.24-2.76-4.52-4-6.86a146.5,146.5,0,0,1-15.82-45.35,163,163,0,0,1,2-64.68,212.1,212.1,0,0,1,24.5-60c2.72-4.66,5.63-9.2,8.65-13.66,1.52-2.23,3.16-4.5,4.78-6.72l2.54-3.27,1.29-1.63,1.34-1.58,2.7-3.15,2.83-3,1.42-1.51,1.48-1.46,3-2.89,3.1-2.77,1.55-1.38,1.6-1.32,3.22-2.62,3.32-2.49c17.87-13.13,38.72-21.62,60-26.07s43-5.19,64.29-3.68a346.28,346.28,0,0,1,62.74,10.85q7.67,2.06,15.24,4.38t15,5c10,3.46,19.75,7.39,29.38,11.62-10.08-3-20.18-5.84-30.35-8.37-5.08-1.26-10.19-2.42-15.29-3.52s-10.23-2.13-15.36-3.07a386.43,386.43,0,0,0-61.87-6.6c-20.62-.42-41.23,1.23-60.93,6-4.91,1.25-9.78,2.62-14.54,4.27s-9.46,3.43-14,5.55a129.48,129.48,0,0,0-13.27,6.93c-2.17,1.23-4.23,2.64-6.32,4-1,.69-2,1.43-3.06,2.13s-2,1.43-3,2.2l-3,2.27-2.85,2.39-1.43,1.2-1.37,1.26-2.74,2.52-2.63,2.63-1.31,1.32L505,736l-2.52,2.74-2.4,2.84L498.84,743l-1.14,1.48-2.29,2.95c-.74,1-1.44,2-2.16,3s-1.45,2-2.15,3.09c-1.4,2.14-2.82,4.27-4.16,6.44s-2.7,4.33-4,6.52c-10.4,17.54-18.95,36.12-24.37,55.65a176.13,176.13,0,0,0-6.23,60.29,170.25,170.25,0,0,0,5,30.4c1.3,5,2.79,10,4.56,14.9.89,2.46,1.8,4.91,2.77,7.35l1.48,3.66A27.16,27.16,0,0,1,467.5,942.5Z"/><path d="M482.45,965.68c9.08,8,18.15,16.11,28.52,22a120.1,120.1,0,0,0,16.11,7.69c5.57,2.14,11.26,4,17,5.67,23.09,6.5,46.85,11,70.55,15.76,3,.55,6,1.2,8.87,1.66l4.4.77c1.47.26,3,.45,4.44.68l4.44.67,4.47.58c3,.39,6,.78,9,1.1l18,2,18,1.78,36.12,3.49c12,1.23,24.11,2.31,36.14,4-24.25.09-48.48-.37-72.7-1.72-6.06-.3-12.1-.76-18.16-1.19s-12.11-.91-18.15-1.59c-3-.29-6-.65-9.08-1l-4.53-.55-4.54-.63q-4.55-.6-9.09-1.46c-3-.52-6-1.17-9-1.76-11.88-2.42-23.77-4.86-35.57-7.75-5.91-1.4-11.81-2.91-17.69-4.49s-11.71-3.38-17.51-5.32c-11.57-3.86-23-8.72-33.26-15.61A109.72,109.72,0,0,1,495,978.83C490.63,974.63,486.5,970.19,482.45,965.68Z"/><path d="M864.5,715.5a30.26,30.26,0,0,0,5.3-.06c1.76-.14,3.51-.37,5.26-.61,3.49-.49,7-1.14,10.43-1.85,6.92-1.45,13.81-3,20.66-4.78s13.67-3.63,20.47-5.54,13.57-3.92,20.3-6Q952,695,957,693.36l10.08-3.42,20.23-6.63q20.26-6.57,40.62-12.78L1068.63,658c13.79-3.94,27.72-7.42,41.79-10.23,3.51-.76,7-1.36,10.57-2s7.07-1.23,10.62-1.82,7.09-1.07,10.65-1.58,7.12-.92,10.68-1.37q21.39-2.57,43-3.3T1239,638c14.36.66,28.7,2.06,43,4.11,3.57.51,7.14,1.09,10.66,1.7l10.52,1.82q10.62,1.89,21.14,4.29,21,4.88,41.48,11.73a445.4,445.4,0,0,1,148.16,84.14,583.08,583.08,0,0,0-73.35-42.36c-12.66-6.13-25.54-11.78-38.65-16.76s-26.36-9.57-39.79-13.5-27-7.32-40.69-10c-3.44-.63-6.85-1.35-10.29-2s-6.87-1.25-10.33-1.73l-10.47-1.58c-3.47-.52-6.91-1-10.36-1.46a524.4,524.4,0,0,0-83.6-3.75c-14,.42-27.93,1.44-41.84,2.88q-10.43,1.1-20.82,2.59c-3.46.5-6.93,1-10.38,1.56s-6.91,1.08-10.34,1.75c-13.77,2.5-27.49,5.37-41.06,8.85L1061.79,673l-10.29,2.78c-6.86,1.85-13.73,3.63-20.6,5.39l-41.13,10.64-20.52,5.47L959,700c-3.44.94-6.9,1.83-10.35,2.69-13.83,3.45-27.72,6.49-41.74,9-7,1.23-14,2.4-21.09,3.22-3.54.42-7.08.77-10.64,1A47.42,47.42,0,0,1,864.5,715.5Z"/><path d="M1295.5,1035.5a76.44,76.44,0,0,1-10.22,2.58c-3.46.66-6.93,1.24-10.4,1.79-6.94,1.07-13.91,2-20.88,2.84l-20.9,2.38-10.45,1.1c-3.47.4-6.93.74-10.29,1.33-6.78,1.08-13.62,2.58-20.59,3.82-1.73.33-3.48.62-5.22.9s-3.5.59-5.25.84l-5.26.71c-1.76.25-3.51.48-5.27.64-14.08,1.47-28.19,2.18-42.27,2.35-7,.14-14.07,0-21.1,0l-5.28,0-5.27-.14c-3.51-.09-7-.21-10.53-.34-7-.19-14-.65-21-1-3.5-.2-7-.33-10.51-.58l-10.5-.76c-28-1.92-55.93-4.81-83.76-8.4,28.06.74,56,2.13,84,3l10.49.36,10.49.29c7,.17,14,.46,21,.5,14,.22,28,.46,41.9.14,3.48-.1,7,0,10.45-.19l10.44-.37c7-.37,13.89-.78,20.79-1.48,1.73-.13,3.46-.31,5.18-.51l5.17-.58c1.72-.21,3.43-.47,5.15-.7s3.44-.48,5.15-.77c6.87-1,13.75-2.45,20.86-3.27,3.57-.47,7.1-.67,10.6-.93l10.51-.67,21-1.18c7-.38,14-.79,21-1.3,3.49-.24,7-.52,10.46-.87A88.68,88.68,0,0,0,1295.5,1035.5Z"/><path d="M1520.5,757.5a232.45,232.45,0,0,1,24.85,30.41,242.26,242.26,0,0,1,19.74,34.34c2.79,6,5.37,12.16,7.6,18.46a193.54,193.54,0,0,1,5.83,19.21,172.48,172.48,0,0,1,5.23,40.05c.16,13.91-2.23,27.21-5.16,40.12a391.46,391.46,0,0,1-11.18,37.83c-4.27,12.36-9,24.52-13.89,36.56s-10.09,23.92-15,36c.84-6.49,2.07-12.93,3.46-19.31s2.9-12.71,4.44-19c3.13-12.63,6.46-25.15,9.6-37.65s6.19-25,8.58-37.42c1.23-6.22,2.26-12.45,3-18.63l.53-4.63.38-4.61c.07-1.52.18-3.05.21-4.56s.1-3,0-4.56c-.15-24.8-5.72-49.58-14.44-73.38S1533.75,780,1520.5,757.5Z"/><path d="M1302.13,1098.85a622.41,622.41,0,0,1-3.26,80.27q-1.08,10-2.46,20c-.93,6.66-2,13.27-3,19.88s-2.14,13.23-3.36,19.84-2.6,13.24-4.35,19.82a103.79,103.79,0,0,1-7,19.45,67.37,67.37,0,0,1-5.48,9,65.53,65.53,0,0,1-6.9,8c-4.91,4.94-10.17,9-13.77,13.85a32.18,32.18,0,0,0-4.39,7.85,42,42,0,0,0-2.36,8.87,55.34,55.34,0,0,0,.37,18.64,54.45,54.45,0,0,0,6.39,17.48,41.25,41.25,0,0,0,12.43,13.26,52.87,52.87,0,0,0,17,7.38,79.58,79.58,0,0,0,18.92,2.26c3.21,0,6.42-.13,9.62-.43a68.07,68.07,0,0,0,9.39-1.45,79,79,0,0,0,17.85-6.71,124.91,124.91,0,0,0,16.5-10.23,193.1,193.1,0,0,0,28.94-26.61c8.84-9.91,17.62-20,26.09-30.26,16.93-20.58,33.22-41.74,47.87-64a375.74,375.74,0,0,0,20.34-34.38c3-5.92,5.87-12,8.35-18.15a119.23,119.23,0,0,0,6-19.06c-2.13,13.24-6.92,25.94-12.46,38.14-2.77,6.12-5.82,12.11-9,18s-6.55,11.72-10,17.46a666.64,666.64,0,0,1-46.34,65.79q-6.23,7.9-12.65,15.66c-4.26,5.19-8.57,10.29-13,15.37a199.79,199.79,0,0,1-29.64,28,122.43,122.43,0,0,1-17.43,11.08,86.58,86.58,0,0,1-19.58,7.44,74.61,74.61,0,0,1-10.41,1.67,103.37,103.37,0,0,1-10.41.52,87.56,87.56,0,0,1-20.82-2.4,59.2,59.2,0,0,1-19.57-8.58,49.27,49.27,0,0,1-14.7-15.84,64.13,64.13,0,0,1-7.52-41.31,50,50,0,0,1,2.94-10.43,39.51,39.51,0,0,1,5.51-9.52,61.24,61.24,0,0,1,7.32-7.71c2.53-2.3,5-4.45,7.31-6.69a59,59,0,0,0,6.3-7.08,60.74,60.74,0,0,0,5-8,98.71,98.71,0,0,0,7-18.06c3.65-12.61,6-25.77,8.55-38.87,1.24-6.57,2.49-13.13,3.62-19.69s2.16-13.15,3.11-19.75A778.43,778.43,0,0,0,1302.13,1098.85Z"/><path d="M912,1047c29.41.57,58.76,2.31,88.08,3.53,14.66.58,29.31,1.17,44,1.43q11,.26,22,.36c7.33,0,14.65.06,22-.07,3.66,0,7.32,0,11-.13l11-.22c7.32-.25,14.63-.51,22-.83,14.66-.57,29.3-1.4,44-2.18,29.3-1.67,58.58-3.76,87.91-5.92-29,4.64-58.27,8-87.58,10.59s-58.68,4.43-88.17,4.69-58.91-.91-88.25-3.07S941.24,1050.05,912,1047Z"/><path d="M357.6,937.24c33.33,13,66.75,25.29,100.59,36.35s68,20.91,102.48,29.56c8.62,2.16,17.26,4.25,25.92,6.21s17.33,3.87,26,5.63c17.39,3.58,34.9,6.58,52.46,9.43,35.16,5.52,70.6,10,105.92,15.58-17.87-.62-35.7-1.71-53.54-2.89q-13.37-1-26.74-2.14c-4.45-.38-8.9-.83-13.35-1.3s-8.91-.93-13.35-1.46c-17.81-2-35.56-4.66-53.21-7.87q-13.24-2.44-26.39-5.32c-8.75-2-17.49-4-26.18-6.19a951,951,0,0,1-102.6-32A842.07,842.07,0,0,1,357.6,937.24Z"/><path d="M864.5,1249.5c4.17,0,8.33-.09,12.5-.07s8.32-.06,12.48,0h62.34l12.46,0c16.62,0,33.24.12,49.86.13,16.63.21,33.25.23,49.88.59l12.47.2,12.48.31,12.47.32,12.48.43c2.09.1,4.12.08,6.19.06l6.22-.1,12.46-.25,24.93-.6q24.93-.69,49.86-1.61c16.61-.67,33.23-1.31,49.81-2.72-16.51,2.13-33.12,3.38-49.71,4.58s-33.21,2.18-49.82,3.08-33.19,1.77-49.94,2.22l-12.48.43-12.47.31-12.48.3-12.48.18c-16.63.3-33.27.26-49.91.26l-25-.32c-4.16-.07-8.32-.11-12.48-.22l-12.48-.38c-8.32-.26-16.65-.52-25-1s-16.64-.83-25-1.44c-4.15-.3-8.31-.55-12.46-.9l-12.45-1.08c-4.15-.38-8.29-.83-12.44-1.26S868.63,1250,864.5,1249.5Z"/><path d="M326.63,1165.68A367.06,367.06,0,0,0,371,1181c15.07,4.22,30.3,7.82,45.6,11.07,30.63,6.39,61.5,11.57,92.47,16.12q11.61,1.72,23.24,3.37c1.94.3,3.87.5,5.81.69l5.82.56,11.66,1.15,11.69,1.1,11.67,1.21,11.69,1.19,11.67,1.31L614,1220c3.89.44,7.77,1,11.66,1.42l11.66,1.43,11.65,1.56c15.53,2.11,31,4.35,46.54,7.08-15.74.27-31.44-.38-47.1-1.26l-11.75-.72-11.73-.9c-3.9-.32-7.81-.6-11.72-1l-11.7-1.13-11.71-1.17L578.11,1224l-11.68-1.4-11.67-1.6c-3.88-.58-7.78-1-11.66-1.73s-7.79-1.37-11.65-2q-11.62-1.82-23.23-3.75-23.21-3.93-46.32-8.4t-46-10c-15.26-3.68-30.44-7.74-45.4-12.51A338.69,338.69,0,0,1,326.63,1165.68Z"/><path d="M1576.47,1024.15c15.64-1.16,31.22-2.2,46.75-3.56,7.76-.74,15.53-1.37,23.27-2.24s15.49-1.65,23.21-2.66c15.45-2,30.88-4.1,46.28-6.57s30.76-5.22,46.22-7.89a410.54,410.54,0,0,1-45.35,12.49q-23,5-46.41,7.92c-7.8.9-15.61,1.72-23.43,2.35s-15.67,1.06-23.52,1.25A407.57,407.57,0,0,1,1576.47,1024.15Z"/><path d="M1491.44,1231c17-3,34.14-5.32,51.29-7.26s34.32-3.54,51.58-4.62c4.31-.25,8.63-.52,13-.66,2.16-.09,4.35-.13,6.52-.19h6.51c8.48,0,17.06-.4,25.62-.87s17.13-1.15,25.68-2,17.08-1.84,25.61-3.28a187.06,187.06,0,0,1-25.13,6.55c-8.51,1.63-17.08,3-25.69,4s-17.24,1.85-26,2.11l-6.41.19c-2.14.11-4.26.18-6.4.32l-12.84.79c-17.16,1.12-34.35,2.31-51.56,3.17S1508.74,1231,1491.44,1231Z"/><path d="M716.48,1256.61a19.66,19.66,0,0,0-1.16,2.69,13.12,13.12,0,0,0-.54,2.75,20.35,20.35,0,0,0,0,2.82c0,.94.07,1.9.15,2.86.15,1.92.39,3.85.58,5.8l.32,2.92c.11,1,.17,1.84.31,2.75a41.63,41.63,0,0,0,8.51,19.67A52.48,52.48,0,0,0,741,1312.74a44.53,44.53,0,0,0,20.43,5.45,56.87,56.87,0,0,0,21.36-4c1.74-.65,3.45-1.38,5.17-2.19.91-.42,1.6-.81,2.4-1.23s1.54-.9,2.29-1.43a63.77,63.77,0,0,0,8.61-7.15c2.73-2.66,5.33-5.51,7.85-8.45s5-6,7.31-9.08c4.67-6.24,9.23-12.64,13.3-19.37-.66,1.86-1.47,3.66-2.28,5.46s-1.67,3.58-2.56,5.35c-1.78,3.52-3.65,7-5.69,10.42a130.39,130.39,0,0,1-13.79,19.58,63.31,63.31,0,0,1-8.87,8.58c-.82.66-1.71,1.27-2.59,1.88s-1.9,1.18-2.73,1.66c-1.75,1-3.59,2-5.45,2.89a58.23,58.23,0,0,1-24.38,5.84,49.56,49.56,0,0,1-24.67-6.4,57.77,57.77,0,0,1-10.32-7.43,54,54,0,0,1-8.31-9.6,44.13,44.13,0,0,1-7.84-23.89c0-.52,0-1.05,0-1.58s0-1.06.06-1.54c.07-1,.17-2,.26-3,.17-2,.45-4,.77-6a27.64,27.64,0,0,1,1.51-6A12.32,12.32,0,0,1,716.48,1256.61Z"/><path d="M839.42,1241.21c8.68-13.85,15.1-28.73,21-43.81s11-30.5,15.85-46c1.25-3.82,2.16-7.7,3.07-11.66s1.73-7.91,2.54-11.89c1.62-8,3-16,4.44-24q1.05-6,2-12t1.84-12.07c.56-4,1.13-8.06,1.57-12.1a93.38,93.38,0,0,0,.79-12.17,52.05,52.05,0,0,1,.32,6.12c0,2,0,4.08-.12,6.13q-.26,6.12-.76,12.23t-1.15,12.19q-.67,6.09-1.44,12.16c-1,8.11-2.23,16.19-3.58,24.25-.68,4-1.39,8.07-2.23,12.08s-1.73,8.08-2.89,12l-1.67,5.9-1.79,5.87q-.9,2.94-1.86,5.85c-.64,1.94-1.23,3.9-1.94,5.83-2.69,7.73-5.58,15.41-8.86,22.92-1.61,3.78-3.32,7.51-5.17,11.17s-3.73,7.32-5.79,10.87A118,118,0,0,1,839.42,1241.21Z"/><path d="M744.38,1197.35c3.27-6.33,6.33-12.65,9.33-19,1.51-3.18,3-6.38,4.45-9.58s3-6.4,4.37-9.59a143.39,143.39,0,0,0,7.27-19.6c.92-3.36,1.71-6.77,2.42-10.23A71.15,71.15,0,0,1,775,1119c-.49,3.53-.71,7-1,10.57a90,90,0,0,1-1.35,10.66,79.62,79.62,0,0,1-2.71,10.44,106.64,106.64,0,0,1-3.8,10.06,194.61,194.61,0,0,1-9.56,19.11c-.9,1.53-1.82,3.06-2.74,4.58s-1.94,3-2.93,4.48A81.32,81.32,0,0,1,744.38,1197.35Z"/><path d="M616.09,880.92c-2.34-4.19,1.93-10.84,6.95-18.67,4.84-7.55,8.55-13.33,12.65-13,7,.62,16.35,19.17,8.64,29.56C637.41,888.2,619.53,887.09,616.09,880.92Z"/><path d="M616.09,880.92a5.72,5.72,0,0,1-.66-3.2,12.12,12.12,0,0,1,.66-3.25,42.82,42.82,0,0,1,2.66-6.1c1-2,2-3.94,3.09-5.9s2-3.93,3.13-5.9a41.26,41.26,0,0,1,3.74-5.84,13.25,13.25,0,0,1,2.85-2.71c.33-.2.63-.4,1-.57a10.35,10.35,0,0,1,1.14-.44,6.67,6.67,0,0,1,2.6-.24,9.39,9.39,0,0,1,4.26,1.69,16.39,16.39,0,0,1,2.94,2.65,25.12,25.12,0,0,1,4,6.23,25.53,25.53,0,0,1,2.2,14.39,16.89,16.89,0,0,1-2.78,7,16,16,0,0,1-5.56,4.88,21.16,21.16,0,0,1-6.67,2.19,28.69,28.69,0,0,1-6.79.27,24.51,24.51,0,0,1-6.53-1.37,13.08,13.08,0,0,1-3-1.48A7,7,0,0,1,616.09,880.92Zm0,0a9,9,0,0,0,5.33,3.63,19.75,19.75,0,0,0,6.48.75,20.48,20.48,0,0,0,11.79-4.16,12.84,12.84,0,0,0,4.83-10,26,26,0,0,0-2.5-11.35,23.81,23.81,0,0,0-1.35-2.61,21.48,21.48,0,0,0-1.6-2.38,14.12,14.12,0,0,0-1.82-1.93,5.09,5.09,0,0,0-1.7-1,2.19,2.19,0,0,0-1.6.2,9.81,9.81,0,0,0-2.2,1.52,39.51,39.51,0,0,0-4.31,4.65c-2.74,3.4-5.53,6.9-8,10.53a30.44,30.44,0,0,0-3.16,5.76,11,11,0,0,0-.8,3.19A5.7,5.7,0,0,0,616.09,880.92Z"/><path class="cls-1" d="M635,860.53c-.84-1.6.81-5.21,3.39-5.34s4.61,3.42,3.89,5.08C641.41,862.31,636.06,862.52,635,860.53Z"/><path d="M1309.5,990.5a26.78,26.78,0,0,0-1.37,6.65c-.24,2.23-.38,4.48-.52,6.74-.3,4.53-.64,9.12-1.3,13.7s-1.65,9.07-2.63,13.51c-.49,2.21-1,4.42-1.42,6.64a28.15,28.15,0,0,0-.76,6.76,11.33,11.33,0,0,1-1.2-3.36,30.4,30.4,0,0,1-.48-3.54,53.22,53.22,0,0,1,0-7c.26-4.66.93-9.22,1.56-13.69s1.32-9,2.36-13.57a48,48,0,0,1,2-6.76A16.84,16.84,0,0,1,1309.5,990.5Z"/><path d="M697.34,862.81a43.25,43.25,0,0,1,.7,18.54,53.82,53.82,0,0,1-2.35,9.12c-.54,1.47-1.13,2.94-1.79,4.38s-1.41,2.82-2.14,4.22-1.61,2.72-2.53,4-1.86,2.56-2.85,3.78a52.28,52.28,0,0,1-6.71,6.68,39.61,39.61,0,0,1-16.59,8.4c4.22-4.58,8.09-8.83,11.54-13.36,1.73-2.25,3.38-4.52,4.93-6.84.75-1.18,1.55-2.32,2.24-3.53s1.43-2.39,2.14-3.59,1.38-2.42,2-3.67,1.25-2.5,1.89-3.75c1.21-2.53,2.34-5.11,3.43-7.75C693.44,874.18,695.27,868.68,697.34,862.81Z"/><path class="cls-2" d="M751,1000c3-21,11.51-44.29,17-58,12.66-31.63,15.65-40.22,20.3-67.87C790.17,863.06,795,837,795,831c0-25.64-.85-28.28-.83-43.31,0,0,.75-6.5-2.34-42.19-.83-9.5-.75-26,2.17-28.5,0,0,7.28-1,31,1a318.92,318.92,0,0,0,40,1c21.23-.69,41.42-6.89,53-9,29-5.29,81-29.11,90-26,12.54,4.35,63,29,16,133-16.7,37-22.37,67.66-24,84-8.88,88.83-5.52,101.73-3,137,1,14-28.21,3.89-31,5-5,2-42-3-49,0-3.94,1.69-8.25,24.27-9,28-3,15-6.88,40.29-27,87-28,65-18.76,41-51,101-13.8,25.69-19.43,44.16-41.7,55.55-7.59,3.88-22.89,11.43-39.9,7.2-19.86-5-28.48-22.57-30.52-26.76-6.49-13.26-6.48-26.09-3.52-35,8.64-26,32.64-57,47.64-94,12.27-30.26,13.42-46.27,18-71,5-27-.61-55.88-5-59-10.2-7.25-28-6-28-6S748.86,1007.07,751,1000Z"/><path class="cls-2" d="M1313,961c8-24,15.09-40.54,29-49,23-14,30.82-13.67,37-15,14-3,38-3.74,54-4,62-1,96.79,21,105,28,7,6,28,17,28,28,0,17.44-43.45,138.61-43,137,7.88-28.42-11,42-20,60-4.4,8.81-7.08,34.1-34,80s-44.84,68.64-53,78c-23.69,27.17-40.26,45.33-51,52-14.71,9.14-32.26,23.34-54,27-3.75.63-40,8-64-24-6.85-9.13-11.26-31.13-5-46,4.36-10.36,17.33-17.57,21-23,0,0,14-17,21-49,6.1-27.9,13.21-50,15-108,.83-27,0-67,0-83C1299,1005.48,1303.6,989.21,1313,961Z"/><path class="cls-2" d="M523.2,852.4c-6.89,9.18-9.55,21.77-9.45,32.26.06,6.5.59,21.06,12.87,38.3,9.68,13.59,29.92,31.15,41.12,25.56,19.53-9.75-4.25-33.23,2.34-55.11,10.46-34.69,4.74-48.33-4.61-54.32C553.18,831.21,533.57,838.59,523.2,852.4Z"/><path class="cls-2" d="M565.12,792.26c-.48-11.67,5.45-18.39,11.7-24.91,18.51-19.31,44.82-21.63,53-21,16.46,1.25,30.84,7.8,39.84,17.81,6.35,7.06,10.81,21.26-7.85,21.79-16.26.46-18.86,4.17-34.17,14-16.14,10.33-17,23.17-28.36,25.65C585.75,828.52,565.87,810.15,565.12,792.26Z"/><path class="cls-3" d="M595.34,805.43a24.19,24.19,0,0,1-2.45-16.12,23.47,23.47,0,0,1,3.22-8.1,25.2,25.2,0,0,1,5.95-6.49,27.73,27.73,0,0,1,16.13-5.46,29.59,29.59,0,0,1,8.26,1.07,25.94,25.94,0,0,1,7.33,3.5c-2.71-.11-5.26-.2-7.76-.08a47,47,0,0,0-7.23,1,32.56,32.56,0,0,0-12.5,5.57,25.25,25.25,0,0,0-8.13,10.54A42.89,42.89,0,0,0,595.34,805.43Z"/><path class="cls-3" d="M553.9,918.64a26.94,26.94,0,0,1-12.06-11.9,27.71,27.71,0,0,1-2.78-8.51,28.4,28.4,0,0,1,.17-9.06,19,19,0,0,1,.5-2.21c.21-.72.37-1.46.65-2.17a35.22,35.22,0,0,1,1.81-4.12,30,30,0,0,1,5.31-7.09,27.75,27.75,0,0,1,15-7.87,54,54,0,0,0-10.76,11.41,39.05,39.05,0,0,0-3.55,6.44l-.65,1.69c-.23.55-.37,1.14-.56,1.71a16.79,16.79,0,0,0-.47,1.72,12.93,12.93,0,0,0-.36,1.75,29.53,29.53,0,0,0-.47,7.09,32.85,32.85,0,0,0,1.26,7.13A49.79,49.79,0,0,0,553.9,918.64Z"/><path class="cls-2" d="M497,731c-12.85-.8-25.46-22.56-24-42,.24-3.16,1.43-16.34,12-26,14.09-12.87,33.71-9.32,41-8,25,4.52,48,24.29,45,34-2.3,7.34-17.27,1.71-38,13C510.33,714.35,508.73,731.73,497,731Z"/><path class="cls-2" d="M445,833.35c-8.14-10-33.17-7.57-48.13,4.94-2.43,2-12.45,10.68-14.15,24.89-2.26,19,12.06,32.84,17.37,38,18.22,17.67,47.73,24.91,53.85,16.78,4.63-6.14-8.67-15-11.56-38.46C439.18,853.87,452.38,842.46,445,833.35Z"/></svg>